<svg xmlns="http://www.w3.org/2000/svg" viewBox="0 0 1600 1000">
  <defs>
    <linearGradient id="bg2" x1="0" x2="1" y1="0" y2="1">
      <stop offset="0%" stop-color="#d4d9ce"/>
      <stop offset="100%" stop-color="#8ba59d"/>
    </linearGradient>
  </defs>
  <rect width="1600" height="1000" fill="url(#bg2)"/>
  <rect y="780" width="1600" height="220" fill="#4b614e" opacity="0.9"/>
  <path d="M0 820 L1600 820" stroke="#f4f7f5" stroke-width="8" opacity="0.9"/>
  <path d="M0 860 L1600 860" stroke="#f4f7f5" stroke-width="8" opacity="0.9"/>
  <circle cx="510" cy="440" r="95" fill="#ddbb8a"/>
  <path d="M420 480 Q510 560 610 470 L650 760 L400 760 Z" fill="#bbf23d"/>
  <path d="M590 495 L760 470 L855 760 L640 760 Z" fill="#bbf23d"/>
  <circle cx="1110" cy="440" r="92" fill="#d7b388"/>
  <path d="M1015 490 Q1110 565 1205 485 L1225 760 L980 760 Z" fill="#f6f6f6"/>
  <path d="M1170 495 L1335 470 L1425 760 L1200 760 Z" fill="#f6f6f6"/>
  <text x="800" y="200" text-anchor="middle" font-family="Arial, sans-serif" font-size="78" font-weight="700" fill="#182e3a">SOCCER</text>
  <text x="800" y="280" text-anchor="middle" font-family="Arial, sans-serif" font-size="46" fill="#1d2d2c" opacity="0.8">Training Photo 2</text>
</svg>
